<?xml version="1.0" encoding="iso-8859-1"?>
<!-- Generator: Adobe Illustrator 19.0.0, SVG Export Plug-In . SVG Version: 6.00 Build 0)  -->
<svg version="1.1" id="Layer_1" xmlns="http://www.w3.org/2000/svg" xmlns:xlink="http://www.w3.org/1999/xlink" x="0px" y="0px"
	 viewBox="0 0 320.402 320.402" style="enable-background:new 0 0 320.402 320.402;" xml:space="preserve">
<g>
	<path style="fill:#5C6670;" d="M262.011,304.692c0,8.641-7.07,15.71-15.711,15.71H57.344c-8.641,0-15.71-7.069-15.71-15.71V15.71
		C41.634,7.069,48.703,0,57.344,0H246.3c8.641,0,15.711,7.069,15.711,15.71V304.692z"/>
	<path style="fill:#1E252B;" d="M278.767,304.692c0,8.641-7.068,15.71-15.709,15.71H74.102c-8.641,0-15.71-7.069-15.71-15.71V15.71
		C58.392,7.069,65.461,0,74.102,0h188.956c8.641,0,15.709,7.069,15.709,15.71V304.692z"/>
	<rect x="70.74" y="27.201" style="fill:#00AF41;" width="195.677" height="249.5"/>
	<path style="fill:#C3C6C8;" d="M45.983,76.257V43.386c0-1.934,1.566-3.5,3.5-3.5c1.933,0,3.5,1.566,3.5,3.5v32.871
		c0,1.933-1.567,3.5-3.5,3.5C47.55,79.757,45.983,78.189,45.983,76.257z"/>
	<path style="fill:#C3C6C8;" d="M45.983,129.498V96.627c0-1.934,1.566-3.5,3.5-3.5c1.933,0,3.5,1.566,3.5,3.5v32.871
		c0,1.933-1.567,3.5-3.5,3.5C47.55,132.998,45.983,131.431,45.983,129.498z"/>
	<circle style="fill:#5C6670;" cx="170.578" cy="297.568" r="13.522"/>
	<circle style="fill:#FFFFFF;" cx="170.578" cy="13.522" r="5.733"/>
	<rect x="98.477" y="62.191" style="fill:#FFFFFF;" width="140.203" height="124.704"/>
	<rect x="116.043" y="79.757" style="fill:#C3C6C8;" width="52.535" height="52.535"/>
	<rect x="116.043" y="149.309" style="fill:#A4A9AD;" width="105.07" height="17.441"/>
</g>
<g>
</g>
<g>
</g>
<g>
</g>
<g>
</g>
<g>
</g>
<g>
</g>
<g>
</g>
<g>
</g>
<g>
</g>
<g>
</g>
<g>
</g>
<g>
</g>
<g>
</g>
<g>
</g>
<g>
</g>
</svg>
